<?xml version="1.0" encoding="UTF-8"?>
<svg id="Layer_2" data-name="Layer 2" xmlns="http://www.w3.org/2000/svg" viewBox="0 0 900.29 543.35">
  <defs>
    <style>
      .cls-1 {
        fill: #f77f00;
      }
    </style>
  </defs>
  <g id="Layer_1-2" data-name="Layer 1">
    <g>
      <rect class="cls-1" x="233.82" width="82.97" height="249.02" rx="5.92" ry="5.92"/>
      <path class="cls-1" d="m80.73,245.01v-122.83l30.08,123.78c.44,1.8,2.05,3.06,3.89,3.06h91.85c2.21,0,4.01-1.79,4.01-4.01V4.01c0-2.21-1.79-4.01-4.01-4.01h-74.96c-2.21,0-4.01,1.79-4.01,4.01v130.39L100.71,3.2c-.38-1.86-2.02-3.2-3.93-3.2H0v249.02h76.72c2.21,0,4.01-1.79,4.01-4.01Z"/>
      <path class="cls-1" d="m546.6,0h-74.96c-2.21,0-4.01,1.79-4.01,4.01v130.39L440.76,3.2c-.38-1.86-2.02-3.2-3.93-3.2h-92.78c-2.21,0-4.01,1.79-4.01,4.01v241.01c0,2.21,1.79,4.01,4.01,4.01h72.71c2.21,0,4.01-1.79,4.01-4.01v-122.83l30.08,123.78c.44,1.8,2.05,3.06,3.89,3.06h91.85c2.21,0,4.01-1.79,4.01-4.01V4.01c0-2.21-1.79-4.01-4.01-4.01Z"/>
      <path class="cls-1" d="m577.87,249.01h37.78s75.29.01,75.29.01c2.21,0,4.01-1.79,4.01-4.01V4.01c0-2.21-1.79-4.01-4.01-4.01h-74.96c-2.21,0-4.01,1.79-4.01,4.01v139.72h-34.1c-2.21,0-4.01,1.79-4.01,4.01v97.27c0,2.21,1.79,4.01,4.01,4.01Z"/>
      <path class="cls-1" d="m795.09,245.03l.27-56.74h27.67l.27,56.74c.01,2.21,1.8,3.99,4.01,3.99h72.98L867.89,3.48c-.26-1.99-1.96-3.48-3.97-3.48h-109.3c-2.01,0-3.71,1.49-3.97,3.48l-31.84,241.01c-.32,2.4,1.55,4.53,3.97,4.53h68.3c2.21,0,4-1.78,4.01-3.99Zm9.4-190.02h10.3l8.39,84.74c.23,2.36-1.62,4.4-3.98,4.4l-19.11.02c-2.37,0-4.22-2.04-3.99-4.4l8.39-84.75Z"/>
      <path class="cls-1" d="m123.71,299.57H0v243.02h114.76c23.65,0,42.81-11.85,42.81-42.81v-50c0-21.77-18.33-25.31-32.31-25.31h-4.3v-8.01h13.72c12.65,0,22.9-10.25,22.9-22.9v-60.12c0-18.71-15.16-33.87-33.87-33.87Zm-49.84,49.24h18.53c2.21,0,4.01,1.79,4.01,4.01v38.99c0,2.21-1.79,4.01-4.01,4.01h-18.53v-47.01Zm25.71,141.05c0,2.21-1.79,4.01-4.01,4.01h-21.71v-48.25h21.71c2.21,0,4.01,1.79,4.01,4.01v40.23Z"/>
      <path class="cls-1" d="m296.2,438.05h-42.02v-134.48c0-2.21-1.79-4.01-4.01-4.01h-65.85c-2.21,0-4.01,1.79-4.01,4.01v235.01c0,2.21,1.79,4.01,4.01,4.01h111.88c2.21,0,4.01-1.79,4.01-4.01v-96.52c0-2.21-1.79-4.01-4.01-4.01Z"/>
      <path class="cls-1" d="m672.67,299.57h-69.86c-23.14,0-41.88,19.77-41.88,44.15v154.7c0,24.38,18.74,44.17,41.88,44.17h69.86c23.12,0,41.88-19.79,41.88-44.17v-56.38c0-2.21-1.79-4.01-4.01-4.01h-49.94c-2.21,0-4.01,1.79-4.01,4.01v47.4c0,2.21-1.79,4.01-4.01,4.01h-21.56v-144.76h21.56c2.21,0,4.01,1.79,4.01,4.01v39.23c0,2.21,1.79,4.01,4.01,4.01h49.94c2.21,0,4.01-1.79,4.01-4.01v-48.21c0-24.38-18.76-44.15-41.88-44.15Z"/>
      <path class="cls-1" d="m860.46,415.63c17.32-4.26,17.61-18.49,21.94-37.35l17.9-77.95h-61.32c-2.05,0-3.77,1.55-3.98,3.59l-10.52,99.92h-14.69v-99.5c0-2.21-1.79-4.01-4.01-4.01h-64.48c-2.21,0-4.01,1.79-4.01,4.01v235.01c0,2.21,1.79,4.01,4.01,4.01h64.48c2.21,0,4.01-1.79,4.01-4.01v-101.24h14.69l10.53,101.65c.21,2.04,1.93,3.59,3.99,3.59h61.31l-17.9-77.95c-4.32-18.86-4.62-33.08-21.94-37.34-3.53-.87-8.98-1.34-12.73-1.34v-9.75c3.74,0,9.19-.46,12.73-1.33Z"/>
      <g>
        <path class="cls-1" d="m540.1,414.16l-39.36-78.44c-2.94-5.86-8.93-9.55-15.48-9.55h-109.54c-6.55,0-12.55,3.7-15.48,9.55l-39.35,78.42c-1.98,3.94-2.38,8.48-1.12,12.7l31.86,107.24c1.36,4.58,5.57,7.73,10.35,7.73h137.04c4.78,0,8.99-3.14,10.35-7.73l31.86-107.22c1.26-4.22.85-8.77-1.12-12.71Zm-36.7,89.51h-145.87l-14.85-52.78h175.57l-14.85,52.78Z"/>
        <polygon class="cls-1" points="409.17 473.52 401.08 473.52 401.08 461.32 386.03 461.32 386.03 492.96 409.17 492.96 409.17 473.52"/>
        <polygon class="cls-1" points="473.44 473.79 465.34 473.79 465.34 461.59 450.29 461.59 450.29 493.23 473.44 493.23 473.44 473.79"/>
        <g>
          <polygon class="cls-1" points="400.17 303.09 429.12 326.17 416.55 287.97 400.17 303.09"/>
          <polygon class="cls-1" points="443.09 266.55 429.12 326.17 476.41 286.12 443.09 266.55"/>
        </g>
      </g>
    </g>
  </g>
</svg>